<svg xmlns="http://www.w3.org/2000/svg" viewBox="0 0 180 180" fill="none">
  <rect width="180" height="180" rx="48" fill="#FFFFFF"/>
  <!-- Mermaid Hair -->
  <ellipse cx="90" cy="60" rx="67" ry="52" fill="#00D4AA"/>
  <path d="M23 60c0-28 28-52 67-52s67 24 67 52c0 11-6 22-20 28-14 6-28 3-47 3s-33-3-47-3c-14-6-20-17-20-28z" fill="#00B894"/>
  
  <!-- Face -->
  <circle cx="90" cy="72" r="39" fill="#FDBCB4" stroke="#2D3748" stroke-width="5"/>
  
  <!-- Eyes -->
  <ellipse cx="77" cy="63" rx="4" ry="8" fill="#2D3748"/>
  <ellipse cx="103" cy="63" rx="4" ry="8" fill="#2D3748"/>
  
  <!-- Mouth -->
  <path d="M82 81c4 5 9 5 13 0" stroke="#2D3748" stroke-width="5" stroke-linecap="round"/>
  
  <!-- Cheeks -->
  <circle cx="60" cy="76" r="6" fill="#FF6B9D" opacity="0.6"/>
  <circle cx="120" cy="76" r="6" fill="#FF6B9D" opacity="0.6"/>
  
  <!-- Body/Top -->
  <ellipse cx="90" cy="120" rx="28" ry="20" fill="#FF6B9D" stroke="#2D3748" stroke-width="5"/>
  
  <!-- Tail -->
  <ellipse cx="90" cy="152" rx="35" ry="14" fill="#FFD93D" stroke="#2D3748" stroke-width="5"/>
  <path d="M125 152c11 0 17 6 14 14s-11 6-21 0" fill="#FFD93D" stroke="#2D3748" stroke-width="5" stroke-linejoin="round"/>
</svg>
