<svg xmlns="http://www.w3.org/2000/svg" viewBox="0 0 48 48" fill="none">
  <rect width="48" height="48" rx="12" fill="#FFFFFF"/>
  <!-- Mermaid Hair -->
  <ellipse cx="24" cy="18" rx="18" ry="16" fill="#00D4AA"/>
  <path d="M6 18c0-8 8-16 18-16s18 8 18 16c0 4-2 8-6 10-4 2-8 1-12 1s-8-1-12-1c-4-2-6-6-6-10z" fill="#00B894"/>
  
  <!-- Face -->
  <circle cx="24" cy="22" r="12" fill="#FDBCB4" stroke="#2D3748" stroke-width="2"/>
  
  <!-- Eyes -->
  <ellipse cx="20" cy="20" rx="1.5" ry="3" fill="#2D3748"/>
  <ellipse cx="28" cy="20" rx="1.5" ry="3" fill="#2D3748"/>
  
  <!-- Mouth -->
  <path d="M22 25c1 1.5 3 1.5 4 0" stroke="#2D3748" stroke-width="2" stroke-linecap="round"/>
  
  <!-- Cheeks -->
  <circle cx="17" cy="24" r="2" fill="#FF6B9D" opacity="0.6"/>
  <circle cx="31" cy="24" r="2" fill="#FF6B9D" opacity="0.6"/>
  
  <!-- Body/Top -->
  <ellipse cx="24" cy="35" rx="8" ry="6" fill="#FF6B9D" stroke="#2D3748" stroke-width="2"/>
  
  <!-- Tail -->
  <ellipse cx="24" cy="42" rx="10" ry="4" fill="#FFD93D" stroke="#2D3748" stroke-width="2"/>
  <path d="M34 42c3 0 5 2 4 4s-3 2-6 0" fill="#FFD93D" stroke="#2D3748" stroke-width="2" stroke-linejoin="round"/>
</svg>