<svg xmlns="http://www.w3.org/2000/svg" viewBox="0 0 512 512" fill="none">
  <rect width="512" height="512" rx="132" fill="#FFFFFF"/>
  <!-- Mermaid Hair -->
  <ellipse cx="256" cy="170" rx="190" ry="145" fill="#00D4AA"/>
  <path d="M66 170c0-80 80-145 190-145s190 65 190 145c0 32-20 64-58 80-38 16-80 8-132 8s-94-8-132-8c-38-16-58-48-58-80z" fill="#00B894"/>
  
  <!-- Face -->
  <circle cx="256" cy="205" r="110" fill="#FDBCB4" stroke="#2D3748" stroke-width="14"/>
  
  <!-- Eyes -->
  <ellipse cx="220" cy="180" rx="12" ry="24" fill="#2D3748"/>
  <ellipse cx="292" cy="180" rx="12" ry="24" fill="#2D3748"/>
  
  <!-- Mouth -->
  <path d="M236 230c12 16 28 16 40 0" stroke="#2D3748" stroke-width="14" stroke-linecap="round"/>
  
  <!-- Cheeks -->
  <circle cx="170" cy="218" r="18" fill="#FF6B9D" opacity="0.6"/>
  <circle cx="342" cy="218" r="18" fill="#FF6B9D" opacity="0.6"/>
  
  <!-- Body/Top -->
  <ellipse cx="256" cy="345" rx="80" ry="58" fill="#FF6B9D" stroke="#2D3748" stroke-width="14"/>
  
  <!-- Tail -->
  <ellipse cx="256" cy="435" rx="100" ry="40" fill="#FFD93D" stroke="#2D3748" stroke-width="14"/>
  <path d="M356 435c32 0 48 20 40 40s-32 20-60 0" fill="#FFD93D" stroke="#2D3748" stroke-width="14" stroke-linejoin="round"/>
</svg>
