<svg xmlns="http://www.w3.org/2000/svg" viewBox="0 0 128 128" fill="none">
  <rect width="128" height="128" rx="32" fill="#FFFFFF"/>
  <!-- Mermaid Hair -->
  <ellipse cx="64" cy="42" rx="48" ry="36" fill="#00D4AA"/>
  <path d="M16 42c0-20 20-36 48-36s48 16 48 36c0 8-5 16-15 20-10 4-20 2-33 2s-23-2-33-2c-10-4-15-12-15-20z" fill="#00B894"/>
  
  <!-- Face -->
  <circle cx="64" cy="50" r="28" fill="#FDBCB4" stroke="#2D3748" stroke-width="4"/>
  
  <!-- Eyes -->
  <ellipse cx="54" cy="45" rx="3" ry="6" fill="#2D3748"/>
  <ellipse cx="74" cy="45" rx="3" ry="6" fill="#2D3748"/>
  
  <!-- Mouth -->
  <path d="M58 58c3 4 7 4 10 0" stroke="#2D3748" stroke-width="4" stroke-linecap="round"/>
  
  <!-- Cheeks -->
  <circle cx="42" cy="55" r="5" fill="#FF6B9D" opacity="0.6"/>
  <circle cx="86" cy="55" r="5" fill="#FF6B9D" opacity="0.6"/>
  
  <!-- Body/Top -->
  <ellipse cx="64" cy="85" rx="20" ry="15" fill="#FF6B9D" stroke="#2D3748" stroke-width="4"/>
  
  <!-- Tail -->
  <ellipse cx="64" cy="108" rx="25" ry="10" fill="#FFD93D" stroke="#2D3748" stroke-width="4"/>
  <path d="M89 108c8 0 12 5 10 10s-8 5-15 0" fill="#FFD93D" stroke="#2D3748" stroke-width="4" stroke-linejoin="round"/>
</svg>
