<svg xmlns="http://www.w3.org/2000/svg" viewBox="0 0 192 192" fill="none">
  <rect width="192" height="192" rx="48" fill="#FFFFFF"/>
  <!-- Mermaid Hair -->
  <ellipse cx="96" cy="65" rx="72" ry="55" fill="#00D4AA"/>
  <path d="M24 65c0-30 30-55 72-55s72 25 72 55c0 12-7 24-22 30-15 6-30 3-50 3s-35-3-50-3c-15-6-22-18-22-30z" fill="#00B894"/>
  
  <!-- Face -->
  <circle cx="96" cy="78" r="42" fill="#FDBCB4" stroke="#2D3748" stroke-width="6"/>
  
  <!-- Eyes -->
  <ellipse cx="82" cy="68" rx="4.5" ry="9" fill="#2D3748"/>
  <ellipse cx="110" cy="68" rx="4.5" ry="9" fill="#2D3748"/>
  
  <!-- Mouth -->
  <path d="M88 88c4 6 10 6 14 0" stroke="#2D3748" stroke-width="6" stroke-linecap="round"/>
  
  <!-- Cheeks -->
  <circle cx="64" cy="82" r="7" fill="#FF6B9D" opacity="0.6"/>
  <circle cx="128" cy="82" r="7" fill="#FF6B9D" opacity="0.6"/>
  
  <!-- Body/Top -->
  <ellipse cx="96" cy="130" rx="30" ry="22" fill="#FF6B9D" stroke="#2D3748" stroke-width="6"/>
  
  <!-- Tail -->
  <ellipse cx="96" cy="165" rx="38" ry="15" fill="#FFD93D" stroke="#2D3748" stroke-width="6"/>
  <path d="M134 165c12 0 18 7 15 15s-12 7-22 0" fill="#FFD93D" stroke="#2D3748" stroke-width="6" stroke-linejoin="round"/>
</svg>
